<?xml version="1.0" encoding="UTF-8" standalone="no"?>
<svg xmlns="http://www.w3.org/2000/svg" width="16" height="16" version="1.1">
<g id="active-center">
    <rect x="0" y="0" width="16" height="16" fill="#c0c0c0"/>
    <rect x="0" y="0" width="16" height="1" fill="#ffffff"/>
    <rect x="0" y="0" width="1" height="16" fill="#ffffff"/>
    <rect x="1" y="1" width="14" height="1" fill="#dfdfdf"/>
    <rect x="1" y="1" width="1" height="14" fill="#dfdfdf"/>
    <rect x="0" y="15" width="16" height="1" fill="#000000"/>
    <rect x="15" y="0" width="1" height="16" fill="#000000"/>
    <rect x="1" y="14" width="14" height="1" fill="#808080"/>
    <rect x="14" y="1" width="1" height="14" fill="#808080"/><g><path d="M4.2,4.2 L11.8,11.8" stroke="#000000" stroke-width="1.9"/><path d="M11.8,4.2 L4.2,11.8" stroke="#000000" stroke-width="1.9"/></g></g>
<g id="inactive-center">
    <rect x="0" y="0" width="16" height="16" fill="#c0c0c0"/>
    <rect x="0" y="0" width="16" height="1" fill="#ffffff"/>
    <rect x="0" y="0" width="1" height="16" fill="#ffffff"/>
    <rect x="1" y="1" width="14" height="1" fill="#dfdfdf"/>
    <rect x="1" y="1" width="1" height="14" fill="#dfdfdf"/>
    <rect x="0" y="15" width="16" height="1" fill="#000000"/>
    <rect x="15" y="0" width="1" height="16" fill="#000000"/>
    <rect x="1" y="14" width="14" height="1" fill="#808080"/>
    <rect x="14" y="1" width="1" height="14" fill="#808080"/><g><path d="M4.2,4.2 L11.8,11.8" stroke="#000000" stroke-width="1.9"/><path d="M11.8,4.2 L4.2,11.8" stroke="#000000" stroke-width="1.9"/></g></g>
<g id="hover-center">
    <rect x="0" y="0" width="16" height="16" fill="#c0c0c0"/>
    <rect x="0" y="0" width="16" height="1" fill="#ffffff"/>
    <rect x="0" y="0" width="1" height="16" fill="#ffffff"/>
    <rect x="1" y="1" width="14" height="1" fill="#dfdfdf"/>
    <rect x="1" y="1" width="1" height="14" fill="#dfdfdf"/>
    <rect x="0" y="15" width="16" height="1" fill="#000000"/>
    <rect x="15" y="0" width="1" height="16" fill="#000000"/>
    <rect x="1" y="14" width="14" height="1" fill="#808080"/>
    <rect x="14" y="1" width="1" height="14" fill="#808080"/><g><path d="M4.2,4.2 L11.8,11.8" stroke="#000000" stroke-width="1.9"/><path d="M11.8,4.2 L4.2,11.8" stroke="#000000" stroke-width="1.9"/></g></g>
<g id="deactivated-center">
    <rect x="0" y="0" width="16" height="16" fill="#c0c0c0"/>
    <rect x="0" y="0" width="16" height="1" fill="#ffffff"/>
    <rect x="0" y="0" width="1" height="16" fill="#ffffff"/>
    <rect x="1" y="1" width="14" height="1" fill="#dfdfdf"/>
    <rect x="1" y="1" width="1" height="14" fill="#dfdfdf"/>
    <rect x="0" y="15" width="16" height="1" fill="#000000"/>
    <rect x="15" y="0" width="1" height="16" fill="#000000"/>
    <rect x="1" y="14" width="14" height="1" fill="#808080"/>
    <rect x="14" y="1" width="1" height="14" fill="#808080"/><g><path d="M4.2,4.2 L11.8,11.8" stroke="#000000" stroke-width="1.9"/><path d="M11.8,4.2 L4.2,11.8" stroke="#000000" stroke-width="1.9"/></g></g>
<g id="pressed-center">
    <rect x="0" y="0" width="16" height="16" fill="#c0c0c0"/>
    <rect x="0" y="0" width="16" height="1" fill="#000000"/>
    <rect x="0" y="0" width="1" height="16" fill="#000000"/>
    <rect x="1" y="1" width="14" height="1" fill="#808080"/>
    <rect x="1" y="1" width="1" height="14" fill="#808080"/>
    <rect x="0" y="15" width="16" height="1" fill="#ffffff"/>
    <rect x="15" y="0" width="1" height="16" fill="#ffffff"/>
    <rect x="1" y="14" width="14" height="1" fill="#dfdfdf"/>
    <rect x="14" y="1" width="1" height="14" fill="#dfdfdf"/><g transform="translate(1,1)"><path d="M4.2,4.2 L11.8,11.8" stroke="#000000" stroke-width="1.9"/><path d="M11.8,4.2 L4.2,11.8" stroke="#000000" stroke-width="1.9"/></g></g>
</svg>
