<?xml version="1.0" encoding="UTF-8" standalone="no"?>
<svg xmlns="http://www.w3.org/2000/svg" width="22" height="20" version="1.1">
<g id="active-center"><rect x="0" y="0" width="22" height="20" fill="#c0c0c0"/><rect x="1" y="1" width="20" height="1" fill="#dfdfdf"/><rect x="1" y="1" width="1" height="18" fill="#dfdfdf"/><rect x="1" y="18" width="20" height="1" fill="#808080"/><rect x="20" y="1" width="1" height="18" fill="#808080"/><rect x="0" y="0" width="22" height="1" fill="#ffffff"/><rect x="0" y="0" width="1" height="20" fill="#ffffff"/><rect x="0" y="19" width="22" height="1" fill="#000000"/><rect x="21" y="0" width="1" height="20" fill="#000000"/><rect x="7" y="15" width="1" height="1" fill="#000000"/><rect x="8" y="15" width="1" height="1" fill="#000000"/><rect x="9" y="15" width="1" height="1" fill="#000000"/><rect x="10" y="15" width="1" height="1" fill="#000000"/><rect x="11" y="15" width="1" height="1" fill="#000000"/><rect x="12" y="15" width="1" height="1" fill="#000000"/><rect x="7" y="16" width="1" height="1" fill="#000000"/><rect x="8" y="16" width="1" height="1" fill="#000000"/><rect x="9" y="16" width="1" height="1" fill="#000000"/><rect x="10" y="16" width="1" height="1" fill="#000000"/><rect x="11" y="16" width="1" height="1" fill="#000000"/><rect x="12" y="16" width="1" height="1" fill="#000000"/></g>
<g id="inactive-center"><rect x="0" y="0" width="22" height="20" fill="#c0c0c0"/><rect x="1" y="1" width="20" height="1" fill="#dfdfdf"/><rect x="1" y="1" width="1" height="18" fill="#dfdfdf"/><rect x="1" y="18" width="20" height="1" fill="#808080"/><rect x="20" y="1" width="1" height="18" fill="#808080"/><rect x="0" y="0" width="22" height="1" fill="#ffffff"/><rect x="0" y="0" width="1" height="20" fill="#ffffff"/><rect x="0" y="19" width="22" height="1" fill="#000000"/><rect x="21" y="0" width="1" height="20" fill="#000000"/><rect x="7" y="15" width="1" height="1" fill="#000000"/><rect x="8" y="15" width="1" height="1" fill="#000000"/><rect x="9" y="15" width="1" height="1" fill="#000000"/><rect x="10" y="15" width="1" height="1" fill="#000000"/><rect x="11" y="15" width="1" height="1" fill="#000000"/><rect x="12" y="15" width="1" height="1" fill="#000000"/><rect x="7" y="16" width="1" height="1" fill="#000000"/><rect x="8" y="16" width="1" height="1" fill="#000000"/><rect x="9" y="16" width="1" height="1" fill="#000000"/><rect x="10" y="16" width="1" height="1" fill="#000000"/><rect x="11" y="16" width="1" height="1" fill="#000000"/><rect x="12" y="16" width="1" height="1" fill="#000000"/></g>
<g id="hover-center"><rect x="0" y="0" width="22" height="20" fill="#c0c0c0"/><rect x="1" y="1" width="20" height="1" fill="#dfdfdf"/><rect x="1" y="1" width="1" height="18" fill="#dfdfdf"/><rect x="1" y="18" width="20" height="1" fill="#808080"/><rect x="20" y="1" width="1" height="18" fill="#808080"/><rect x="0" y="0" width="22" height="1" fill="#ffffff"/><rect x="0" y="0" width="1" height="20" fill="#ffffff"/><rect x="0" y="19" width="22" height="1" fill="#000000"/><rect x="21" y="0" width="1" height="20" fill="#000000"/><rect x="7" y="15" width="1" height="1" fill="#000000"/><rect x="8" y="15" width="1" height="1" fill="#000000"/><rect x="9" y="15" width="1" height="1" fill="#000000"/><rect x="10" y="15" width="1" height="1" fill="#000000"/><rect x="11" y="15" width="1" height="1" fill="#000000"/><rect x="12" y="15" width="1" height="1" fill="#000000"/><rect x="7" y="16" width="1" height="1" fill="#000000"/><rect x="8" y="16" width="1" height="1" fill="#000000"/><rect x="9" y="16" width="1" height="1" fill="#000000"/><rect x="10" y="16" width="1" height="1" fill="#000000"/><rect x="11" y="16" width="1" height="1" fill="#000000"/><rect x="12" y="16" width="1" height="1" fill="#000000"/></g>
<g id="pressed-center"><rect x="0" y="0" width="22" height="20" fill="#c0c0c0"/><rect x="1" y="1" width="20" height="1" fill="#808080"/><rect x="1" y="1" width="1" height="18" fill="#808080"/><rect x="1" y="18" width="20" height="1" fill="#dfdfdf"/><rect x="20" y="1" width="1" height="18" fill="#dfdfdf"/><rect x="0" y="0" width="22" height="1" fill="#000000"/><rect x="0" y="0" width="1" height="20" fill="#000000"/><rect x="0" y="19" width="22" height="1" fill="#ffffff"/><rect x="21" y="0" width="1" height="20" fill="#ffffff"/><rect x="8" y="16" width="1" height="1" fill="#000000"/><rect x="9" y="16" width="1" height="1" fill="#000000"/><rect x="10" y="16" width="1" height="1" fill="#000000"/><rect x="11" y="16" width="1" height="1" fill="#000000"/><rect x="12" y="16" width="1" height="1" fill="#000000"/><rect x="13" y="16" width="1" height="1" fill="#000000"/><rect x="8" y="17" width="1" height="1" fill="#000000"/><rect x="9" y="17" width="1" height="1" fill="#000000"/><rect x="10" y="17" width="1" height="1" fill="#000000"/><rect x="11" y="17" width="1" height="1" fill="#000000"/><rect x="12" y="17" width="1" height="1" fill="#000000"/><rect x="13" y="17" width="1" height="1" fill="#000000"/></g>
<g id="deactivated-center"><rect x="0" y="0" width="22" height="20" fill="#c0c0c0"/><rect x="1" y="1" width="20" height="1" fill="#dfdfdf"/><rect x="1" y="1" width="1" height="18" fill="#dfdfdf"/><rect x="1" y="18" width="20" height="1" fill="#808080"/><rect x="20" y="1" width="1" height="18" fill="#808080"/><rect x="0" y="0" width="22" height="1" fill="#ffffff"/><rect x="0" y="0" width="1" height="20" fill="#ffffff"/><rect x="0" y="19" width="22" height="1" fill="#000000"/><rect x="21" y="0" width="1" height="20" fill="#000000"/><rect x="8" y="16" width="1" height="1" fill="#ffffff"/><rect x="9" y="16" width="1" height="1" fill="#ffffff"/><rect x="10" y="16" width="1" height="1" fill="#ffffff"/><rect x="11" y="16" width="1" height="1" fill="#ffffff"/><rect x="12" y="16" width="1" height="1" fill="#ffffff"/><rect x="13" y="16" width="1" height="1" fill="#ffffff"/><rect x="8" y="17" width="1" height="1" fill="#ffffff"/><rect x="9" y="17" width="1" height="1" fill="#ffffff"/><rect x="10" y="17" width="1" height="1" fill="#ffffff"/><rect x="11" y="17" width="1" height="1" fill="#ffffff"/><rect x="12" y="17" width="1" height="1" fill="#ffffff"/><rect x="13" y="17" width="1" height="1" fill="#ffffff"/><rect x="7" y="15" width="1" height="1" fill="#808080"/><rect x="8" y="15" width="1" height="1" fill="#808080"/><rect x="9" y="15" width="1" height="1" fill="#808080"/><rect x="10" y="15" width="1" height="1" fill="#808080"/><rect x="11" y="15" width="1" height="1" fill="#808080"/><rect x="12" y="15" width="1" height="1" fill="#808080"/><rect x="7" y="16" width="1" height="1" fill="#808080"/><rect x="8" y="16" width="1" height="1" fill="#808080"/><rect x="9" y="16" width="1" height="1" fill="#808080"/><rect x="10" y="16" width="1" height="1" fill="#808080"/><rect x="11" y="16" width="1" height="1" fill="#808080"/><rect x="12" y="16" width="1" height="1" fill="#808080"/></g>
</svg>
